# xmcd
#
# Track frame offsets:
#	150
#	20729
#	46451
#	65335
#	87867
#	110573
#	127472
#	148319
#	163786
#	181610
#	198466
#	224315
#
# Disc length: 3247 seconds
#
# Revision: 1
# Processed by: cddbd v1.5.2PL0 Copyright (c) Steve Scherf et al.
# Submitted via: audiograbber 1.83.01
#
DISCID=b90cad0c
DTITLE=Buddy Guy - Living Proof
DYEAR=2010
DGENRE=Blues
TTITLE0=74 Years Young
TTITLE1=Thank Me Someday
TTITLE2=On The Road
TTITLE3=Stay Around A Little Longer (Feat. B.B. King)
TTITLE4=Key Don't Fit
TTITLE5=Living Proof
TTITLE6=Where The Blues Begins (Feat. Carlos Santana)
TTITLE7=Too Soon
TTITLE8=Everybody's Got To Do
TTITLE9=Let The Door Knob Hit Ya
TTITLE10=Guess What
TTITLE11=Skanky
EXTD=
EXTT0=
EXTT1=
EXTT2=
EXTT3=
EXTT4=
EXTT5=
EXTT6=
EXTT7=
EXTT8=
EXTT9=
EXTT10=
EXTT11=
PLAYORDER=
